In 1902 London, unhappily married Philip Marshall meets young Mary Gray, who is unemployed and depressed. Their deepening friendship, though physically innocent, is discovered by Philip's wife who threatens him with exposure and scandal, driving him to kill her. Thereafter, fortune seems to smile on Philip Marshall; but does fate have a surprise in store? Written by Rod Crawford

General 
Unique ID : 176952912104130777534151571107199877023 (0x851FE426C888F63A9547A98C53147F9F) 
Complete name : The.Suspect.1944.DVDRip.x264-HANDJOB.mkv 
Format : Matroska 
Format version : Version 2 
File size : 1.35 GiB 
Duration : 1h 21mn 
Overall bit rate : 2 373 Kbps 
Encoded date : UTC 2012-07-06 05:24:17 
Writing application : mkvmerge v5.6.0 ('Kenya Kane') built on May 27 2012 16:44:04 
Writing library : libebml v1.2.3 + libmatroska v1.3.0 

Video 
ID : 1 
Format : AVC 
Format/Info : Advanced Video Codec 
Format profile : High@L3.2 
Format settings, CABAC : Yes 
Format settings, ReFrames : 12 frames 
Codec ID : V_MPEG4/ISO/AVC 
Duration : 1h 21mn 
Bit rate : 2 134 Kbps 
Width : 702 pixels 
Height : 574 pixels 
Display aspect ratio : 4:3 
Original display aspect ratio : 4:3 
Frame rate : 25.000 fps 
Color space : YUV 
Chroma subsampling : 4:2:0 
Bit depth : 8 bits 
Scan type : Progressive 
Bits/(Pixel*Frame) : 0.212 
Stream size : 1.21 GiB (90%) 
Writing library : x264 core 120 
Encoding settings : cabac=1 / ref=12 / deblock=1:-3:-3 / analyse=0x3:0x133 / me=umh / subme=11 / psy=1 / psy_rd=1.00:0.00 / mixed_ref=1 / me_range=32 / chroma_me=1 / trellis=2 / 8x8dct=1 / cqm=0 / deadzone=21,11 / fast_pskip=0 / chroma_qp_offset=-2 / threads=4 / sliced_threads=0 / nr=0 / decimate=1 / interlaced=0 / bluray_compat=0 / constrained_intra=0 / bframes=9 / b_pyramid=2 / b_adapt=2 / b_bias=0 / direct=3 / weightb=1 / open_gop=0 / weightp=2 / keyint=250 / keyint_min=25 / scenecut=40 / intra_refresh=0 / rc_lookahead=60 / rc=crf / mbtree=1 / crf=20.0 / qcomp=0.60 / qpmin=3 / qpmax=69 / qpstep=4 / ip_ratio=1.40 / aq=2:1.20 
Language : English 
Default : Yes 
Forced : No 
Color primaries : BT.601-6 525, BT.1358 525, BT.1700 NTSC, SMPTE 170M 
Transfer characteristics : BT.709-5, BT.1361 
Matrix coefficients : BT.601-6 525, BT.1358 525, BT.1700 NTSC, SMPTE 170M 

Audio 
ID : 2 
Format : AC-3 
Format/Info : Audio Coding 3 
Mode extension : CM (complete main) 
Codec ID : A_AC3 
Duration : 1h 21mn 
Bit rate mode : Constant 
Bit rate : 192 Kbps 
Channel(s) : 2 channels 
Channel positions : Front: L R 
Sampling rate : 48.0 KHz 
Bit depth : 16 bits 
Compression mode : Lossy 
Stream size : 112 MiB (8%) 
Language : English 
Default : Yes 
Forced : No 

Text 
ID : 3 
Format : UTF-8 
Codec ID : S_TEXT/UTF8 
Codec ID/Info : UTF-8 Plain Text 
Language : Spanish 
Default : Yes 
Forced : No 

Menu 
00:00:00.000 : en:Chapter 1 
00:09:16.320 : en:Chapter 2 
00:22:43.680 : en:Chapter 3 
00:35:02.880 : en:Chapter 4 
00:44:14.880 : en:Chapter 5 
00:53:50.880 : en:Chapter 6 
01:06:08.160 : en:Chapter 7 
01:11:52.320 : en:Chapter 8 
01:21:02.880 : en:Chapter 9

My rip.